<svg width="492" height="490" viewBox="0 0 492 490" fill="none" xmlns="http://www.w3.org/2000/svg">
<path d="M491.3 245.5C491.3 213 450.6 182.2 388.2 163.1C402.6 99.5 396.2 48.9 368 32.7C361.5 28.9 353.9 27.1 345.6 27.1V49.4C350.2 49.4 353.9 50.3 357 52C370.6 59.8 376.5 89.5 371.9 127.7C370.8 137.1 369 147 366.8 157.1C347.2 152.3 325.8 148.6 303.3 146.2C289.8 127.7 275.8 110.9 261.7 96.2C294.3 65.9 324.9 49.3 345.7 49.3V27C318.2 27 282.2 46.6 245.8 80.6C209.4 46.8 173.4 27.4 145.9 27.4V49.7C166.6 49.7 197.3 66.2 229.9 96.3C215.9 111 201.9 127.7 188.6 146.2C166 148.6 144.6 152.3 125 157.2C122.7 147.2 121 137.5 119.8 128.2C115.1 90 120.9 60.3 134.4 52.4C137.4 50.6 141.3 49.8 145.9 49.8V27.5C137.5 27.5 129.9 29.3 123.3 33.1C95.2 49.3 88.9 99.8 103.4 163.2C41.2 182.4 0.700012 213.1 0.700012 245.5C0.700012 278 41.4 308.8 103.8 327.9C89.4 391.5 95.8 442.1 124 458.3C130.5 462.1 138.1 463.9 146.5 463.9C174 463.9 210 444.3 246.4 410.3C282.8 444.1 318.8 463.5 346.3 463.5C354.7 463.5 362.3 461.7 368.9 457.9C397 441.7 403.3 391.2 388.8 327.8C450.8 308.7 491.3 277.9 491.3 245.5ZM361.1 178.8C357.4 191.7 352.8 205 347.6 218.3C343.5 210.3 339.2 202.3 334.5 194.3C329.9 186.3 325 178.5 320.1 170.9C334.3 173 348 175.6 361.1 178.8ZM315.3 285.3C307.5 298.8 299.5 311.6 291.2 323.5C276.3 324.8 261.2 325.5 246 325.5C230.9 325.5 215.8 324.8 201 323.6C192.7 311.7 184.6 299 176.8 285.6C169.2 272.5 162.3 259.2 156 245.8C162.2 232.4 169.2 219 176.7 205.9C184.5 192.4 192.5 179.6 200.8 167.7C215.7 166.4 230.8 165.7 246 165.7C261.1 165.7 276.2 166.4 291 167.6C299.3 179.5 307.4 192.2 315.2 205.6C322.8 218.7 329.7 232 336 245.4C329.7 258.8 322.8 272.2 315.3 285.3ZM347.6 272.3C353 285.7 357.6 299.1 361.4 312.1C348.3 315.3 334.5 318 320.2 320.1C325.1 312.4 330 304.5 334.6 296.4C339.2 288.4 343.5 280.3 347.6 272.3ZM246.2 379C236.9 369.4 227.6 358.7 218.4 347C227.4 347.4 236.6 347.7 245.9 347.7C255.3 347.7 264.6 347.5 273.7 347C264.7 358.7 255.4 369.4 246.2 379ZM171.8 320.1C157.6 318 143.9 315.4 130.8 312.2C134.5 299.3 139.1 286 144.3 272.7C148.4 280.7 152.7 288.7 157.4 296.7C162.1 304.7 166.9 312.5 171.8 320.1ZM245.7 112C255 121.6 264.3 132.3 273.5 144C264.5 143.6 255.3 143.3 246 143.3C236.6 143.3 227.3 143.5 218.2 144C227.2 132.3 236.5 121.6 245.7 112ZM171.7 170.9C166.8 178.6 161.9 186.5 157.3 194.6C152.7 202.6 148.4 210.6 144.3 218.6C138.9 205.2 134.3 191.8 130.5 178.8C143.6 175.7 157.4 173 171.7 170.9ZM81.2 296.1C45.8 281 22.9 261.2 22.9 245.5C22.9 229.8 45.8 209.9 81.2 194.9C89.8 191.2 99.2 187.9 108.9 184.8C114.6 204.4 122.1 224.8 131.4 245.7C122.2 266.5 114.8 286.8 109.2 306.3C99.3 303.2 89.9 299.8 81.2 296.1ZM135 439C121.4 431.2 115.5 401.5 120.1 363.3C121.2 353.9 123 344 125.2 333.9C144.8 338.7 166.2 342.4 188.7 344.8C202.2 363.3 216.2 380.1 230.3 394.8C197.7 425.1 167.1 441.7 146.3 441.7C141.8 441.6 138 440.7 135 439ZM372.2 362.8C376.9 401 371.1 430.7 357.6 438.6C354.6 440.4 350.7 441.2 346.1 441.2C325.4 441.2 294.7 424.7 262.1 394.6C276.1 379.9 290.1 363.2 303.4 344.7C326 342.3 347.4 338.6 367 333.7C369.3 343.8 371.1 353.5 372.2 362.8ZM410.7 296.1C402.1 299.8 392.7 303.1 383 306.2C377.3 286.6 369.8 266.2 360.5 245.3C369.7 224.5 377.1 204.2 382.7 184.7C392.6 187.8 402 191.2 410.8 194.9C446.2 210 469.1 229.8 469.1 245.5C469 261.2 446.1 281.1 410.7 296.1Z" fill="#61DAFB"/>
<path d="M245.9 290.4C271.139 290.4 291.6 269.939 291.6 244.7C291.6 219.461 271.139 199 245.9 199C220.661 199 200.2 219.461 200.2 244.7C200.2 269.939 220.661 290.4 245.9 290.4Z" fill="#61DAFB"/>
</svg>
